<?xml version="1.0" standalone="no"?>
<!DOCTYPE svg PUBLIC "-//W3C//DTD SVG 1.1//EN" "http://www.w3.org/Graphics/SVG/1.1/DTD/svg11.dtd" >
<svg xmlns="http://www.w3.org/2000/svg">
<metadata></metadata>
<defs>
<font id="meedori_sansregular" horiz-adv-x="1536" >
<font-face units-per-em="2048" ascent="1536" descent="-512" />
<missing-glyph horiz-adv-x="399" />
<glyph horiz-adv-x="0" />
<glyph unicode="&#xd;" horiz-adv-x="0" />
<glyph horiz-adv-x="0" />
<glyph horiz-adv-x="0" />
<glyph unicode=" "  horiz-adv-x="399" />
<glyph unicode="&#x09;" horiz-adv-x="399" />
<glyph unicode="&#xa0;" horiz-adv-x="399" />
<glyph unicode="!" horiz-adv-x="520" d="M150 1538h194l-27 -1173h-139zM178 0v168h139v-168h-139z" />
<glyph unicode="&#x22;" horiz-adv-x="894" d="M205 1020v516h180v-516h-180zM508 1020v516h182v-516h-182z" />
<glyph unicode="#" horiz-adv-x="1888" d="M72 395l34 144h330l115 524h-301q-2 0 4 21.5t12 50.5l17 73h303l69 330h136l-68 -330h559l72 330h135l-68 -330h396l-35 -145h-393l-117 -524h366l-36 -144h-361l-84 -395h-137l80 395h-557l-82 -395h-135l80 395h-334zM573 539h562l116 524h-555z" />
<glyph unicode="$" horiz-adv-x="1200" d="M156 1124q0 90 31.5 160t85 119t123 79.5t145.5 43.5v198h133v-190q94 -4 185 -35t188 -96l-109 -109q-66 45 -132.5 65.5t-131.5 24.5v-530q72 -20 140.5 -47t122.5 -71t88 -110.5t34 -166.5q0 -193 -106.5 -309.5t-278.5 -145.5v-192h-133v184q-98 4 -188.5 35.5 t-184.5 97.5l106 109q68 -45 134.5 -65.5t132.5 -25.5v570q-72 20 -140.5 47t-123 72t-88 114.5t-33.5 173.5zM307 1124q0 -51 18.5 -87t49.5 -62.5t74 -46t92 -35.5v483q-47 -10 -89 -28.5t-74 -48t-51.5 -74t-19.5 -101.5zM674 162q45 14 88 39.5t74.5 63.5t51 86 t19.5 108q0 49 -18.5 85t-50 61.5t-73.5 43t-91 31.5v-518z" />
<glyph unicode="%" horiz-adv-x="1521" d="M131 1219q0 68 24.5 126t67.5 101t101.5 67.5t126.5 24.5q66 0 124 -24.5t101 -67.5t68.5 -101.5t25.5 -125.5q0 -66 -25.5 -124.5t-68.5 -101.5t-101.5 -68.5t-123.5 -25.5q-68 0 -126.5 25.5t-101.5 68.5t-67.5 101.5t-24.5 124.5zM172 63l1012 1387h153l-1011 -1387 h-154zM250 1219q0 -41 15.5 -77t43 -63.5t64.5 -43t78 -15.5t76.5 15.5t63 43t43 63.5t15.5 77t-15.5 77.5t-43 64.5t-63 43t-76.5 15q-84 0 -142.5 -58t-58.5 -142zM754 319q0 66 25.5 124.5t68.5 101.5t101 68.5t124 25.5t124 -25.5t101 -68.5t68 -101.5t25 -124.5 q0 -68 -25 -126t-68 -101t-101 -67.5t-124 -24.5t-124 24.5t-101 67.5t-68.5 101.5t-25.5 125.5zM874 319q0 -84 57.5 -142t141.5 -58t142.5 58.5t58.5 141.5q0 41 -15.5 77t-43 63.5t-64.5 43t-78 15.5t-78 -15.5t-63.5 -43t-42 -63.5t-15.5 -77z" />
<glyph unicode="&#x26;" horiz-adv-x="1771" d="M184 469q0 76 22.5 145.5t64.5 127t99.5 100.5t129.5 67q-63 47 -102.5 120t-39.5 159q0 74 28 137.5t75 110.5t110.5 74.5t135.5 27.5q74 0 137 -27.5t110 -74.5t74 -110.5t27 -137.5q0 -80 -34 -149.5t-87 -116.5l82 -115q31 -43 78 -109.5t116.5 -164t161.5 -229.5 t215 -304h-190l-267 381q-98 -205 -217.5 -293t-259.5 -88q-96 0 -181 37t-149.5 100.5t-101.5 148.5t-37 183zM367 479q0 -59 22.5 -111.5t61 -91t91 -62.5t111.5 -24q61 0 113.5 24t92.5 62.5t62.5 91t22.5 111.5t-22.5 111.5t-62.5 92.5t-92 62.5t-114 22.5 q-59 0 -111.5 -22.5t-91 -62.5t-61 -92t-22.5 -112zM526 1188q0 -37 14.5 -71t39 -58.5t57.5 -38.5t70 -14q78 0 130 53t52 129t-52 128t-130 52q-74 0 -127.5 -52t-53.5 -128z" />
<glyph unicode="'" horiz-adv-x="548" d="M205 940v598h180v-598h-180z" />
<glyph unicode="(" horiz-adv-x="655" d="M206 777.5q1 199.5 44 394t129 368.5h145q-311 -756 0 -1540h-145q-88 182 -131 380t-42 397.5z" />
<glyph unicode=")" horiz-adv-x="655" d="M131 0q154 379 155 760t-155 778h145q88 -182 131.5 -379.5t42.5 -397.5t-44.5 -393.5t-129.5 -367.5h-145z" />
<glyph unicode="*" horiz-adv-x="962" d="M102 1104v110h256l-170 172l66 66l172 -170v256h111v-256l174 170l63 -66l-172 -172h258v-110h-258l172 -174l-63 -64l-174 172v-258h-111v258l-172 -172l-66 64l170 174h-256z" />
<glyph unicode="+" horiz-adv-x="1187" d="M205 653v140h313v317h152v-317h313v-140h-313v-317h-152v317h-313z" />
<glyph unicode="," horiz-adv-x="421" d="M0 -166l170 422h205l-170 -422h-205z" />
<glyph unicode="-" horiz-adv-x="1134" d="M205 598v137h725v-137h-725z" />
<glyph unicode="." horiz-adv-x="217" d="M33 0v139h151v-139h-151z" />
<glyph unicode="/" horiz-adv-x="1110" d="M131 0l684 1538h164l-684 -1538h-164z" />
<glyph unicode="0" horiz-adv-x="1368" d="M139 768q0 49 5.5 126t22.5 163t54 172t100.5 154.5t158.5 111.5t231 43q127 0 217 -43t149.5 -111.5t94 -154.5t52 -172t21.5 -163t4 -126q0 -43 -3 -115.5t-18.5 -158.5t-48 -173.5t-92 -159t-151.5 -116.5t-225 -45q-135 0 -230.5 42t-159 108.5t-100.5 150.5t-54 169 t-22.5 164t-5.5 134zM291 760q0 -55 6 -122t23.5 -134.5t47 -132t77 -113.5t113 -78.5t153.5 -29.5q117 0 191.5 65.5t117.5 160.5t60.5 201.5t17.5 190.5q0 59 -6.5 128t-22.5 138.5t-44 133t-71 112.5t-103 79t-140 30q-133 0 -216 -66t-129.5 -161t-61.5 -204.5 t-13 -197.5z" />
<glyph unicode="1" horiz-adv-x="862" d="M131 969v200l465 369v-1538h-152v1225z" />
<glyph unicode="2" horiz-adv-x="1282" d="M150 0v137q0 2 31.5 42t79.5 99.5t105.5 128t108.5 128.5q121 137 191.5 234t107.5 164.5t48.5 109.5t11.5 71q0 53 -20.5 103.5t-55.5 88t-82 60.5t-101 23q-45 0 -85.5 -17.5t-74.5 -47.5t-57.5 -68.5t-31.5 -81.5q-29 -2 -72 -2.5t-94 -2.5q12 78 50 145.5t94 117 t129 78t155 28.5q92 0 170 -30.5t134 -88t87 -137.5t31 -180q0 -72 -49.5 -169t-123 -203.5t-159.5 -210t-160 -185.5t-123 -133l-49 -51h717l-51 -150h-862z" />
<glyph unicode="3" horiz-adv-x="1296" d="M150 410h176q10 -53 36.5 -100.5t66.5 -83.5t89 -56t105 -20q61 0 118.5 25.5t101.5 68.5t70.5 100t26.5 119q0 61 -26.5 114.5t-70.5 91.5t-101.5 59.5t-118.5 21.5h-99v147h76q55 0 105.5 11.5t90.5 38t63.5 69.5t23.5 104q0 74 -24.5 124t-64.5 83t-91.5 47.5 t-102.5 14.5q-90 0 -156.5 -57.5t-89.5 -139.5h-157q12 74 51 137.5t95 109.5t126 72.5t143 26.5q86 0 163 -32.5t134.5 -89t91 -132.5t33.5 -164q0 -66 -22.5 -133t-81.5 -151q86 -98 124 -184.5t38 -176.5q0 -98 -37 -185t-101.5 -151.5t-151 -101.5t-184.5 -37 q-90 0 -169.5 31.5t-142 87t-103.5 130.5t-53 161z" />
<glyph unicode="4" horiz-adv-x="1495" d="M115 313v150l827 1073h152v-1073h256v-150h-256v-313h-152v313h-827zM303 463h641v825z" />
<glyph unicode="5" horiz-adv-x="1415" d="M195 375l133 61q29 -129 119 -206.5t217 -77.5q78 0 146.5 27.5t120.5 75.5t81.5 111.5t29.5 137.5q0 70 -28.5 132t-78.5 109.5t-115.5 74t-139.5 26.5q-51 0 -109.5 -8.5t-118 -25.5t-116.5 -46t-109 -72l111 844h799v-149h-672l-57 -447q143 59 283 53t252 -67.5 t181.5 -172t69.5 -257.5q0 -102 -40 -193.5t-108.5 -159t-162 -106.5t-197.5 -39q-88 0 -168 27.5t-144.5 78t-111.5 119t-67 150.5z" />
<glyph unicode="6" horiz-adv-x="1189" d="M129 465v12q0 14 2 19q4 53 19.5 100t37.5 92q6 12 43 80t89.5 162t113 201.5t110.5 197.5t82 149l33 60h183l-332 -616q23 4 43 5t43 1q96 0 181 -36t147.5 -98.5t98.5 -147.5t36 -181t-36 -181t-98.5 -148.5t-147.5 -100.5t-181 -37t-181 37t-148.5 100.5t-100.5 148.5 t-37 181zM281 465q0 -66 24.5 -123t67.5 -100t100 -67.5t123 -24.5q63 0 120.5 24.5t100.5 67.5t67.5 100t24.5 123q0 63 -24.5 120.5t-67.5 100.5t-100.5 67.5t-120.5 24.5q-66 0 -123 -24.5t-100 -67.5t-67.5 -100.5t-24.5 -120.5z" />
<glyph unicode="7" horiz-adv-x="1171" d="M209 1389v149h889l-682 -1538h-156l610 1389h-661z" />
<glyph unicode="8" horiz-adv-x="1370" d="M195 496q0 115 55 220t182 206q-68 84 -88 145t-20 121q0 74 26.5 137.5t74.5 110.5t112.5 74.5t138.5 27.5t138.5 -27.5t112.5 -74.5t74.5 -110.5t26.5 -137.5q0 -57 -19.5 -116.5t-82.5 -143.5q135 -98 192.5 -206t57.5 -226q0 -102 -40 -192.5t-109 -158t-160 -106.5 t-191 -39q-102 0 -190.5 39t-153 106.5t-101 157.5t-36.5 193zM346 496q0 -72 25.5 -134.5t69.5 -109.5t104.5 -74.5t130.5 -27.5t133 27.5t110.5 74.5t76 109.5t28.5 134.5q0 70 -28.5 133t-76 111t-110.5 77t-133 29t-130.5 -29t-104.5 -77t-69.5 -111.5t-25.5 -132.5z M475 1188q0 -43 17.5 -79t45 -61.5t63.5 -39t75 -13.5q41 0 76.5 16.5t63.5 43t44.5 61.5t16.5 72q0 84 -58.5 142.5t-142.5 58.5q-86 0 -143.5 -58.5t-57.5 -142.5z" />
<glyph unicode="9" horiz-adv-x="1208" d="M106 1069q0 96 36 181t99.5 148.5t148.5 100.5t181 37t181.5 -37t149 -100.5t100 -148.5t36.5 -181q0 -106 -59 -225q-6 -12 -43 -79t-89 -160t-111.5 -198.5t-110 -195.5t-84 -149.5t-33.5 -61.5h-180l327 610q-100 -20 -198.5 7.5t-176 91t-126 156.5t-48.5 204z M256 1069q0 -66 24.5 -123t67.5 -100t100.5 -67.5t122.5 -24.5q66 0 123.5 24.5t100.5 67.5t67.5 100.5t24.5 122.5q0 66 -24.5 123t-67.5 100t-100.5 67.5t-123.5 24.5t-123 -24.5t-100 -67.5t-67.5 -100t-24.5 -123z" />
<glyph unicode=":" horiz-adv-x="393" d="M102 0v190h189v-190h-189zM102 840v190h189v-190h-189z" />
<glyph unicode=";" horiz-adv-x="546" d="M109 -119h188l154 373h-189zM256 836v190h188v-190h-188z" />
<glyph unicode="&#x3c;" horiz-adv-x="1050" d="M205 604l641 510v-151l-453 -359l453 -356v-152z" />
<glyph unicode="=" horiz-adv-x="1222" d="M205 487v140h813v-140h-813zM205 821v140h813v-140h-813z" />
<glyph unicode="&#x3e;" horiz-adv-x="1050" d="M205 96v152l452 358l-452 357v151l641 -508z" />
<glyph unicode="?" horiz-adv-x="1265" d="M186 1083v7q-2 92 34 172.5t97.5 142t143.5 97.5t174 36t173 -36t142.5 -96t96 -142t34.5 -174q0 -84 -30.5 -160t-88 -136.5t-140.5 -100.5t-187 -54v-313h-152v471h152q61 2 114.5 25.5t94.5 62.5t64.5 91t23.5 114q0 59 -23.5 113t-64.5 95t-94.5 66t-114.5 25 q-59 0 -114.5 -24t-96.5 -64.5t-65.5 -95t-22.5 -115.5v-7h-150zM483 0v150h152v-150h-152z" />
<glyph unicode="@" horiz-adv-x="1908" d="M186.5 737q-12.5 168 63.5 342q129 293 424 404q72 29 149.5 43t157.5 12t158 -20.5t147 -57.5q53 -27 105.5 -61.5t107.5 -89.5q225 -225 225 -545q0 -57 -8 -114.5t-33.5 -125t-71.5 -150.5t-122 -190l-410 314l-30 -11q-43 -14 -91 -14q-61 0 -115.5 22.5t-93 62.5 t-61 93.5t-22.5 112.5q0 61 22.5 115.5t61 93.5t93 61.5t115.5 22.5q59 0 112.5 -22.5t93.5 -61.5t62.5 -93.5t22.5 -115.5q0 -33 -8 -70t-43 -102l260 -189q63 113 88 196t25 165q0 121 -47 232.5t-130 196.5t-195 136t-241 51q-133 0 -238.5 -44t-197.5 -136 q-180 -180 -180 -436q0 -127 43 -237.5t137 -196.5q158 -143 307.5 -176t288.5 24l56 -145q-72 -18 -140.5 -26.5t-140.5 -4.5q-92 6 -183.5 37t-172 83t-147 123.5t-111.5 157.5q-80 166 -92.5 334zM782 766q0 -35 13.5 -66.5t38 -55t56 -38t68.5 -14.5q72 0 123.5 51 t51.5 123q0 37 -14.5 68.5t-38 55t-55.5 38t-67 14.5q-37 0 -68.5 -14.5t-56 -38t-38 -55t-13.5 -68.5z" />
<glyph unicode="A" horiz-adv-x="1634" d="M76 0l741 1536l742 -1536h-166l-576 1178l-575 -1178h-166z" />
<glyph unicode="B" horiz-adv-x="1488" d="M213 0v150h731q8 0 45 7t79 33.5t75 81t33 148.5t-33 148.5t-75 82t-80 34.5t-46 7h-729v150h610q8 0 44 8t76 36.5t72 84t32 149.5q0 96 -34 150.5t-75 80t-76 32t-39 6.5h-610v149h610q2 0 18.5 -1t42 -6t57.5 -16.5t67 -31.5q31 -18 63.5 -47t59 -72t44 -102.5 t17.5 -141.5q0 -111 -33 -189.5t-78 -123.5q45 -16 89 -45t79 -76t57.5 -112.5t22.5 -153.5q0 -78 -17.5 -136.5t-44 -101.5t-60 -72.5t-64.5 -48.5q-66 -39 -122 -50t-73 -11h-735z" />
<glyph unicode="C" horiz-adv-x="1550" d="M74 768q0 317 223 547q229 223 545 223q289 0 508 -190q-10 -10 -28.5 -29t-35 -37t-30.5 -32l-13 -13q-86 72 -185.5 112t-215.5 40q-129 0 -235.5 -46.5t-198.5 -138.5q-182 -186 -183 -436q0 -248 183 -434q188 -184 434 -184q217 0 383 141q35 -31 61 -55 q23 -23 41.5 -40.5t18.5 -15.5q-221 -180 -504 -180q-315 0 -545 223q-223 229 -223 545z" />
<glyph unicode="D" horiz-adv-x="1609" d="M213 0v150h514q117 2 223.5 51t189.5 132t132 194.5t49 240.5q0 119 -46 229.5t-126 196.5t-188.5 139t-233.5 56h-514v149h498q152 -2 290 -62.5t242.5 -163t167 -241.5t62.5 -301q0 -154 -59.5 -291t-163 -242.5t-242 -169t-297.5 -67.5h-498z" />
<glyph unicode="E" horiz-adv-x="1417" d="M213 0v150h991v-150h-991zM213 692v150h852v-150h-852zM213 1389v149h991v-149h-991z" />
<glyph unicode="F" horiz-adv-x="1376" d="M213 0v692v150h152h698v-150h-698v-692h-152zM213 1389v149h989v-149h-989z" />
<glyph unicode="G" horiz-adv-x="1585" d="M145 639q-9 60 -9 119q0 110 30 215q47 162 150.5 287.5t255 201.5t335.5 76q305 0 531 -209l-123 -96q-86 76 -186.5 116t-221.5 40q-147 0 -268 -61.5t-204 -165t-119 -238.5q-23 -85 -23 -175q0 -54 8 -110h-156zM969 639v149h481v-671q-55 -43 -85 -66.5t-44 -34 t-17.5 -13.5t-5.5 -3v639h-329z" />
<glyph unicode="H" horiz-adv-x="1540" d="M213 0v842h963v696h151v-1538h-151v692h-811v-692h-152z" />
<glyph unicode="I" horiz-adv-x="577" d="M213 0v1538h152v-1538h-152z" />
<glyph unicode="J" horiz-adv-x="815" d="M123 0v150q63 0 123.5 22.5t107.5 72.5t76 130t29 194v969h151v-969q0 -74 -17.5 -168t-69.5 -180t-147 -148.5t-253 -72.5z" />
<glyph unicode="K" horiz-adv-x="1177" d="M100 797l799 741h199l-799 -741l799 -797h-199z" />
<glyph unicode="L" horiz-adv-x="1155" d="M82 0v1538h151v-1388h840v-150h-991z" />
<glyph unicode="M" horiz-adv-x="2033" d="M213 0v1538l805 -629l803 629v-1538l-150 203v1020l-653 -512l-653 512v-1020z" />
<glyph unicode="N" horiz-adv-x="1699" d="M213 0v1538l1122 -1165v960l152 205v-1538l-1122 1165v-962z" />
<glyph unicode="O" horiz-adv-x="1748" d="M74 770q0 160 60.5 299t164.5 243.5t244.5 165t300.5 60.5t300 -60.5t244.5 -165t165 -243.5t60.5 -299t-60.5 -300t-165 -244.5t-244.5 -165t-300 -60.5q-158 0 -298 61.5t-244.5 166t-166 244.5t-61.5 298zM225 770q0 -125 50.5 -237.5t134.5 -197.5t196.5 -135 t237.5 -50t237.5 50t196.5 135t134 197.5t50 237.5t-50 237.5t-134 197.5t-196.5 134.5t-237.5 49.5t-237.5 -49.5t-196.5 -134.5t-134.5 -197.5t-50.5 -237.5z" />
<glyph unicode="P" horiz-adv-x="1593" d="M213 0v842h774q43 0 92 15t92 49t72 86t29 128q0 74 -29 125t-72 83t-92 46.5t-92 14.5h-774v149h811q6 0 39 -1t77 -12.5t94 -36t92 -70.5t69.5 -118.5t27.5 -179.5q0 -92 -31.5 -170t-86 -135t-127 -90t-154.5 -33h-659v-692h-152z" />
<glyph unicode="Q" horiz-adv-x="1685" d="M74 768q0 158 60.5 298t164.5 244.5t244.5 166t300.5 61.5q158 0 297 -61.5t243.5 -166t166 -244.5t61.5 -298q0 -125 -41 -243.5t-116 -219t-177 -173.5t-225 -105l311 -254h-242q-102 86 -158.5 132t-83 67.5t-31.5 24.5l-5 3q-158 0 -298 61.5t-244.5 166t-166 243.5 t-61.5 297zM225 768q0 -123 50.5 -235.5t135.5 -197.5t197.5 -135t235.5 -50t234.5 50t196.5 136t135 197.5t50 234.5t-50 235.5t-134 198.5t-196.5 136.5t-235.5 50.5q-125 0 -236.5 -50.5t-196.5 -135.5t-135.5 -197.5t-50.5 -237.5z" />
<glyph unicode="R" horiz-adv-x="1591" d="M213 692v150h803q33 0 77 15t84 48t67.5 86t27.5 127q0 76 -24.5 127t-61.5 83t-82 46.5t-88 14.5h-803v149h829q106 -4 189 -49q35 -18 69.5 -49t61.5 -75t43 -104.5t16 -140.5q0 -76 -16 -134t-43 -102t-61.5 -76t-69.5 -52q-82 -51 -189 -64l373 -692h-172l-371 692 h-659z" />
<glyph unicode="S" horiz-adv-x="1189" d="M143 1128q0 106 44 183.5t114 127.5t158 74.5t178 24.5q100 0 197.5 -29.5t199.5 -101.5l-108 -109q-74 51 -149 71t-150 20q-59 0 -117.5 -13.5t-107 -43t-78 -80t-29.5 -124.5q0 -90 55.5 -138t139 -78.5t181 -55.5t181.5 -69t139.5 -118.5t55.5 -205.5 q0 -111 -37 -197t-102.5 -145.5t-157 -90t-197.5 -30.5q-104 0 -200.5 30.5t-196.5 102.5l106 109q78 -51 152.5 -71.5t148.5 -20.5q57 0 116.5 21.5t107 61t78 98t30.5 132.5q0 90 -55.5 136t-139.5 73.5t-181 50t-181 67t-139.5 123t-55.5 215.5z" />
<glyph unicode="T" horiz-adv-x="1110" d="M307 0v1538h701v-149h-549v-1389h-152z" />
<glyph unicode="U" d="M205 569v969h151v-991q0 -121 38 -198t96.5 -121t129 -61t134.5 -17q74 0 149.5 17t137 61t100.5 121t39 198v991h151v-969q0 -57 -7 -121.5t-28.5 -127t-60.5 -121t-103.5 -102.5t-157.5 -70.5t-220 -26.5q-182 0 -290 57.5t-166 142.5t-75.5 184t-17.5 185z" />
<glyph unicode="V" horiz-adv-x="1583" d="M51 1538h166l574 -1171l575 1171h166l-741 -1540z" />
<glyph unicode="W" horiz-adv-x="2461" d="M51 1538h195l667 -1366l-84 -170zM825 1538h189l624 -1202q47 92 106.5 212t120 247t120 250.5t107.5 226t81 174.5t43 92h194l-772 -1536z" />
<glyph unicode="X" d="M66 0l600 770q-150 193 -300.5 384.5t-299.5 383.5h204l498 -647l129 168q90 117 185.5 238.5t187.5 240.5h200l-598 -768l302 -389l296 -381h-200l-502 649l-203 -262q-72 -92 -148.5 -193.5t-146.5 -193.5h-204z" />
<glyph unicode="Y" horiz-adv-x="1484" d="M43 1538h195l505 -672l500 672h199l-625 -846v-692h-151v692z" />
<glyph unicode="Z" horiz-adv-x="1609" d="M82 0l1110 1389h-1024v149h1337l-1110 -1388h1024v-150h-1337z" />
<glyph unicode="[" horiz-adv-x="792" d="M131 0v1538h422v-139h-266v-1262h266v-137h-422z" />
<glyph unicode="\" horiz-adv-x="1110" d="M131 1538h164l684 -1538h-164z" />
<glyph unicode="]" horiz-adv-x="792" d="M240 0v139h266v1262h-266v137h422v-1538h-422z" />
<glyph unicode="a" horiz-adv-x="1634" d="M76 0l741 1536l742 -1536h-166l-183 369h-786l-182 -369h-166zM494 514h645l-322 664z" />
<glyph unicode="b" horiz-adv-x="1488" d="M213 0v1538h610q2 0 18.5 -1t42 -6t57.5 -16.5t67 -31.5q31 -18 63.5 -47t59 -72t44 -102.5t17.5 -141.5q0 -111 -33 -189.5t-78 -123.5q45 -16 89 -45t79 -76t57.5 -112.5t22.5 -153.5q0 -78 -17.5 -136.5t-44 -101.5t-60 -72.5t-64.5 -48.5q-66 -39 -122 -50t-73 -11 h-735zM365 150h579q8 0 45 7t79 33.5t75 81t33 148.5t-33 148.5t-75 82t-80 34.5t-46 7h-577v-542zM365 842h458q8 0 44 8t76 36.5t72 84t32 149.5q0 96 -34 150.5t-75 80t-76 32t-39 6.5h-458v-547z" />
<glyph unicode="c" horiz-adv-x="1550" d="M74 768q0 317 223 547q229 223 545 223q289 0 508 -190q-10 -10 -28.5 -29t-35 -37t-30.5 -32l-13 -13q-86 72 -185.5 112t-215.5 40q-129 0 -235.5 -46.5t-198.5 -138.5q-182 -186 -183 -436q0 -248 183 -434q188 -184 434 -184q217 0 383 141q35 -31 61 -55 q23 -23 41.5 -40.5t18.5 -15.5q-221 -180 -504 -180q-315 0 -545 223q-223 229 -223 545z" />
<glyph unicode="d" horiz-adv-x="1609" d="M213 0v1538h498q160 0 299 -63.5t242.5 -169t162 -244.5t58.5 -291q0 -158 -62.5 -298t-168 -244.5t-244 -166t-287.5 -61.5h-498zM365 150h362q125 0 233.5 53t188.5 139t126 197.5t46 228.5q0 125 -49 238.5t-132 197.5t-189.5 134.5t-223.5 50.5h-362v-1239z" />
<glyph unicode="e" horiz-adv-x="1417" d="M213 0v1538h991v-149h-839v-547h700v-150h-700v-542h839v-150h-991z" />
<glyph unicode="f" horiz-adv-x="1361" d="M213 0v1538h975v-149h-823v-547h708v-150h-708v-692h-152z" />
<glyph unicode="g" horiz-adv-x="1585" d="M135 768q0 160 61.5 300t166 244.5t245 165t299.5 60.5q305 0 531 -209l-123 -96q-86 76 -186.5 116t-221.5 40q-127 0 -239.5 -50.5t-196.5 -134.5t-134 -197.5t-50 -238.5t50 -236.5t135 -196.5t197.5 -135t237.5 -50q104 0 194.5 31.5t170.5 90.5l26 21v346h-329 l-2 149h483v-565q-23 -20 -73 -58t-120.5 -75t-160 -63.5t-189.5 -26.5q-158 0 -298 61.5t-245.5 166t-167 243.5t-61.5 297z" />
<glyph unicode="h" horiz-adv-x="1540" d="M213 0v1538h152v-696h811v696h151v-1538h-151v692h-811v-692h-152z" />
<glyph unicode="i" horiz-adv-x="577" d="M213 0v1538h152v-1538h-152z" />
<glyph unicode="j" horiz-adv-x="815" d="M123 0v150q63 0 123.5 22.5t107.5 72.5t76 130t29 194v969h151v-969q0 -74 -17.5 -168t-69.5 -180t-147 -148.5t-253 -72.5z" />
<glyph unicode="k" horiz-adv-x="1568" d="M213 0v1538h152v-741v-797h-152zM365 797l798 741h199l-799 -741l799 -797h-199z" />
<glyph unicode="l" horiz-adv-x="1155" d="M82 0v1538h151v-1388h840v-150h-991z" />
<glyph unicode="m" horiz-adv-x="2033" d="M213 0v1538l805 -629l803 629v-1538h-150v1223l-653 -512l-653 512v-1223h-152z" />
<glyph unicode="n" horiz-adv-x="1699" d="M213 0v1538l1122 -1165v1165h152v-1538l-1122 1165v-1165h-152z" />
<glyph unicode="o" horiz-adv-x="1748" d="M74 770q0 160 60.5 299t164.5 243.5t244.5 165t300.5 60.5t300 -60.5t244.5 -165t165 -243.5t60.5 -299t-60.5 -300t-165 -244.5t-244.5 -165t-300 -60.5q-158 0 -298 61.5t-244.5 166t-166 244.5t-61.5 298zM225 770q0 -125 50.5 -237.5t134.5 -197.5t196.5 -135 t237.5 -50t237.5 50t196.5 135t134 197.5t50 237.5t-50 237.5t-134 197.5t-196.5 134.5t-237.5 49.5t-237.5 -49.5t-196.5 -134.5t-134.5 -197.5t-50.5 -237.5z" />
<glyph unicode="p" horiz-adv-x="1591" d="M213 0v1538h809q6 0 39 -1t77 -12.5t94 -36t92 -70.5t69.5 -118.5t27.5 -179.5q0 -92 -31.5 -170t-86 -135t-127 -90t-154.5 -33h-657v-692h-152zM365 842h620q43 0 92 15t92 49t72 86t29 128q0 74 -29 125t-72 83t-92 46.5t-92 14.5h-620v-547z" />
<glyph unicode="q" horiz-adv-x="1687" d="M74 768q0 158 60.5 298t164.5 244.5t244.5 166t300.5 61.5q158 0 297 -61.5t243.5 -166t166 -244.5t61.5 -298q0 -125 -41 -243.5t-116 -219t-177 -173.5t-225 -105l311 -254h-242q-102 86 -158.5 132t-83 67.5t-31.5 24.5l-5 3q-158 0 -298 61.5t-244.5 166t-166 243.5 t-61.5 297zM225 768q0 -123 50.5 -235.5t135.5 -197.5t197.5 -135t235.5 -50t234.5 50t196.5 136t135 197.5t50 234.5t-50 235.5t-134 198.5t-196.5 136.5t-235.5 50.5q-125 0 -236.5 -50.5t-196.5 -135.5t-135.5 -197.5t-50.5 -237.5z" />
<glyph unicode="r" horiz-adv-x="1589" d="M213 0v1538h827q106 -4 189 -49q35 -18 69.5 -49t61 -75t43 -104.5t16.5 -140.5q0 -76 -16.5 -134t-43 -102t-61 -76t-69.5 -52q-82 -51 -189 -64l373 -692h-172l-371 692h-505v-692h-152zM365 842h651q33 0 77 15t84 49t67.5 87.5t27.5 126.5q0 76 -24.5 127t-61.5 83 t-82 45.5t-88 13.5h-651v-547z" />
<glyph unicode="s" horiz-adv-x="1189" d="M143 1128q0 106 44 183.5t114 127.5t158 74.5t178 24.5q100 0 197.5 -29.5t199.5 -101.5l-108 -109q-74 51 -149 71t-150 20q-59 0 -117.5 -13.5t-107 -43t-78 -80t-29.5 -124.5q0 -90 55.5 -138t139 -78.5t181 -55.5t181.5 -69t139.5 -118.5t55.5 -205.5 q0 -111 -37 -197t-102.5 -145.5t-157 -90t-197.5 -30.5q-104 0 -200.5 30.5t-196.5 102.5l106 109q78 -51 152.5 -71.5t148.5 -20.5q57 0 116.5 21.5t107 61t78 98t30.5 132.5q0 90 -55.5 136t-139.5 73.5t-181 50t-181 67t-139.5 123t-55.5 215.5z" />
<glyph unicode="t" horiz-adv-x="1277" d="M14 1389v149h1250v-149h-549v-1389h-152v1389h-549z" />
<glyph unicode="u" d="M205 569v969h151v-991q0 -121 38 -198t96.5 -121t129 -61t134.5 -17q74 0 149.5 17t137 61t100.5 121t39 198v991h151v-969q0 -57 -7 -121.5t-28.5 -127t-60.5 -121t-103.5 -102.5t-157.5 -70.5t-220 -26.5q-182 0 -290 57.5t-166 142.5t-75.5 184t-17.5 185z" />
<glyph unicode="v" horiz-adv-x="1583" d="M51 1538h166l574 -1171l575 1171h166l-741 -1540z" />
<glyph unicode="w" horiz-adv-x="2465" d="M51 1538h197l581 -1202l314 655l-316 547h189l213 -379l196 379h187l-287 -547l315 -655q47 92 106.5 211t121 246t120 251.5t106.5 227t82 174.5t42 92h197l-775 -1538l-411 803l-400 -803z" />
<glyph unicode="x" horiz-adv-x="1554" d="M66 0l596 770l-596 768h227l483 -655l512 655h201l-596 -768l596 -770h-201l-512 655l-483 -655h-227z" />
<glyph unicode="y" horiz-adv-x="1484" d="M43 1538h195l505 -672l500 672h199l-625 -846v-692h-151v692z" />
<glyph unicode="z" horiz-adv-x="1609" d="M82 0l1110 1389h-1024v149h1337l-1110 -1388h1024v-150h-1337z" />
<glyph unicode="{" horiz-adv-x="919" d="M205 770l172 170q23 170 63.5 319.5t106.5 278.5h168q-68 -141 -111 -280.5t-57 -317.5l-170 -170l170 -201q10 -74 22.5 -148.5t30.5 -146t46 -141.5t69 -133h-168q-66 129 -107 274.5t-63 294.5z" />
<glyph unicode="|" horiz-adv-x="765" d="M307 0v1538h152v-1538h-152z" />
<glyph unicode="}" horiz-adv-x="919" d="M205 0q68 141 109.5 280.5t58.5 317.5l170 170l-170 201q-10 74 -22.5 148.5t-31 146t-46 140.5t-68.5 134h168q66 -129 106.5 -274.5t63.5 -294.5l172 -201l-172 -170q-23 -170 -64 -319.5t-106 -278.5h-168z" />
<glyph unicode="&#xa3;" horiz-adv-x="1386" d="M205 0v1061q0 94 34.5 180t95 152.5t142.5 105.5t176 39q127 0 226.5 -60.5t162.5 -164.5l-102 -80q-20 31 -52 59.5t-71 50t-81 34t-83 12.5q-74 0 -129 -24t-93 -64.5t-56.5 -96t-18.5 -119.5v-352h392v-151h-392v-432h840v-150h-991z" />
<glyph unicode="&#xa9;" horiz-adv-x="1671" d="M27 766q0 162 61.5 303t166.5 245.5t246.5 165t301.5 60.5t300 -60.5t244.5 -165t166 -245.5t61.5 -303q0 -158 -61.5 -297t-166 -243.5t-244.5 -165t-300 -60.5t-301.5 60.5t-246.5 165t-166.5 243.5t-61.5 297zM123 766q0 -141 54 -263t146.5 -213t216.5 -143.5 t263 -52.5q137 0 260 52.5t216 143.5t147.5 213t54.5 263t-54.5 265t-147.5 218t-216 148.5t-260 54.5q-139 0 -263 -54.5t-216.5 -148.5t-146.5 -218t-54 -265zM418 768q0 166 114 281q115 115 279 114q152 0 262 -98q-6 -6 -14 -15.5t-17.5 -18.5t-16.5 -15l-7 -6 q-92 76 -207 75q-129 0 -221 -94q-94 -92 -94 -223q0 -129 94 -223q92 -92 221 -92q115 0 197 69q16 -16 30 -28q12 -10 22.5 -19.5t10.5 -7.5q-115 -92 -260 -92q-164 0 -279 112q-115 117 -114 281z" />
<glyph unicode="&#xad;" horiz-adv-x="1134" d="M205 598v137h725v-137h-725z" />
<glyph unicode="&#xae;" horiz-adv-x="1615" d="M29 766q0 162 61.5 303t165.5 245.5t245.5 165t301.5 60.5t300 -60.5t244.5 -165t166 -245.5t61.5 -303q0 -156 -61.5 -295t-166 -243.5t-244.5 -165t-300 -60.5t-301.5 60.5t-245.5 165t-165.5 243.5t-61.5 295zM125 766q0 -139 54 -262t146.5 -213t215.5 -142.5 t262 -52.5q137 0 260 52.5t216 142.5t147.5 213t54.5 262q0 141 -54.5 265t-147.5 218t-216 148.5t-260 54.5q-139 0 -262 -54.5t-215.5 -148.5t-146.5 -218t-54 -265zM526 379v782h406q53 -4 96 -26q35 -20 65.5 -64.5t30.5 -126.5q0 -78 -30.5 -120t-65.5 -64 q-43 -25 -96 -33l190 -348h-88l-190 348h-246v-348h-72zM598 795h320q16 0 38.5 9t43 27.5t35 46t14.5 64.5q0 76 -44 113t-87 37h-320v-297z" />
<glyph unicode="&#xc0;" horiz-adv-x="1634" d="M76 0l741 1536l742 -1536h-166l-183 369h-786l-182 -369h-166zM494 514h645l-322 664zM575 2087h154l170 -422h-154z" />
<glyph unicode="&#xc1;" horiz-adv-x="1634" d="M74 0l741 1536l741 -1536h-165l-183 369h-786l-182 -369h-166zM492 514h645l-322 664zM729 1663l170 422h152l-170 -422h-152z" />
<glyph unicode="&#xc7;" horiz-adv-x="1705" />
<glyph unicode="&#xc8;" horiz-adv-x="1417" d="M213 0v1538h991v-149h-839v-547h700v-150h-700v-542h839v-150h-991zM473 2087h154l170 -422h-154z" />
<glyph unicode="&#xc9;" horiz-adv-x="1417" d="M213 0v1538h991v-149h-839v-547h700v-150h-700v-542h839v-150h-991zM598 1663l170 422h152l-170 -422h-152z" />
<glyph unicode="&#xcc;" horiz-adv-x="444" d="M-10 2087h153l170 -422h-153zM162 0v1538h151v-1538h-151z" />
<glyph unicode="&#xcd;" horiz-adv-x="442" d="M131 1663l170 422h152l-170 -422h-152zM133 0v1538h152v-1538h-152z" />
<glyph unicode="&#xd2;" horiz-adv-x="1748" d="M74 770q0 160 60.5 299t164.5 243.5t244.5 165t300.5 60.5t300 -60.5t244.5 -165t165 -243.5t60.5 -299t-60.5 -300t-165 -244.5t-244.5 -165t-300 -60.5q-158 0 -298 61.5t-244.5 166t-166 244.5t-61.5 298zM225 770q0 -125 50.5 -237.5t134.5 -197.5t196.5 -135 t237.5 -50t237.5 50t196.5 135t134 197.5t50 237.5t-50 237.5t-134 197.5t-196.5 134.5t-237.5 49.5t-237.5 -49.5t-196.5 -134.5t-134.5 -197.5t-50.5 -237.5zM596 2087h154l170 -422h-154z" />
<glyph unicode="&#xd3;" horiz-adv-x="1748" d="M74 770q0 160 60.5 299t164.5 243.5t244.5 165t300.5 60.5t300 -60.5t244.5 -165t165 -243.5t60.5 -299t-60.5 -300t-165 -244.5t-244.5 -165t-300 -60.5q-158 0 -298 61.5t-244.5 166t-166 244.5t-61.5 298zM225 770q0 -125 50.5 -237.5t134.5 -197.5t196.5 -135 t237.5 -50t237.5 50t196.5 135t134 197.5t50 237.5t-50 237.5t-134 197.5t-196.5 134.5t-237.5 49.5t-237.5 -49.5t-196.5 -134.5t-134.5 -197.5t-50.5 -237.5zM750 1663l170 422h151l-170 -422h-151z" />
<glyph unicode="&#xd9;" d="M205 569v969h151v-991q0 -121 38 -198t96.5 -121t129 -61t134.5 -17q74 0 149.5 17t137 61t100.5 121t39 198v991h151v-969q0 -57 -7 -121.5t-28.5 -127t-60.5 -121t-103.5 -102.5t-157.5 -70.5t-220 -26.5q-182 0 -290 57.5t-166 142.5t-75.5 184t-17.5 185zM506 2087 h153l170 -422h-153z" />
<glyph unicode="&#xda;" d="M205 569v969h151v-991q0 -121 38 -198t96.5 -121t129 -61t134.5 -17q74 0 149.5 17t137 61t100.5 121t39 198v991h151v-969q0 -57 -7 -121.5t-28.5 -127t-60.5 -121t-103.5 -102.5t-157.5 -70.5t-220 -26.5q-182 0 -290 57.5t-166 142.5t-75.5 184t-17.5 185zM670 1663 l170 422h151l-170 -422h-151z" />
<glyph unicode="&#xe0;" horiz-adv-x="1523" d="M-8 0l741 1536l742 -1536h-166l-183 369h-786l-182 -369h-166zM410 514h645l-322 664zM492 2087h153l170 -422h-153z" />
<glyph unicode="&#xe1;" horiz-adv-x="1634" d="M76 0l741 1536l742 -1536h-166l-183 369h-786l-182 -369h-166zM494 514h645l-322 664zM729 1663l170 422h152l-170 -422h-152z" />
<glyph unicode="&#xe7;" horiz-adv-x="1705" />
<glyph unicode="&#xe8;" horiz-adv-x="1417" d="M213 0v1538h991v-149h-839v-547h700v-150h-700v-542h839v-150h-991zM473 2087h154l170 -422h-154z" />
<glyph unicode="&#xe9;" horiz-adv-x="1417" d="M213 0v1538h991v-149h-839v-547h700v-150h-700v-542h839v-150h-991zM598 1663l170 422h152l-170 -422h-152z" />
<glyph unicode="&#xec;" horiz-adv-x="444" d="M-10 2087h153l170 -422h-153zM162 0v1538h151v-1538h-151z" />
<glyph unicode="&#xed;" horiz-adv-x="442" d="M131 1663l170 422h152l-170 -422h-152zM133 0v1538h152v-1538h-152z" />
<glyph unicode="&#xf2;" horiz-adv-x="1748" d="M74 770q0 160 60.5 299t164.5 243.5t244.5 165t300.5 60.5t300 -60.5t244.5 -165t165 -243.5t60.5 -299t-60.5 -300t-165 -244.5t-244.5 -165t-300 -60.5q-158 0 -298 61.5t-244.5 166t-166 244.5t-61.5 298zM225 770q0 -125 50.5 -237.5t134.5 -197.5t196.5 -135 t237.5 -50t237.5 50t196.5 135t134 197.5t50 237.5t-50 237.5t-134 197.5t-196.5 134.5t-237.5 49.5t-237.5 -49.5t-196.5 -134.5t-134.5 -197.5t-50.5 -237.5zM596 2087h154l170 -422h-154z" />
<glyph unicode="&#xf3;" horiz-adv-x="1748" d="M74 770q0 160 60.5 299t164.5 243.5t244.5 165t300.5 60.5t300 -60.5t244.5 -165t165 -243.5t60.5 -299t-60.5 -300t-165 -244.5t-244.5 -165t-300 -60.5q-158 0 -298 61.5t-244.5 166t-166 244.5t-61.5 298zM225 770q0 -125 50.5 -237.5t134.5 -197.5t196.5 -135 t237.5 -50t237.5 50t196.5 135t134 197.5t50 237.5t-50 237.5t-134 197.5t-196.5 134.5t-237.5 49.5t-237.5 -49.5t-196.5 -134.5t-134.5 -197.5t-50.5 -237.5zM750 1663l170 422h151l-170 -422h-151z" />
<glyph unicode="&#xf9;" d="M205 569v969h151v-991q0 -121 38 -198t96.5 -121t129 -61t134.5 -17q74 0 149.5 17t137 61t100.5 121t39 198v991h151v-969q0 -57 -7 -121.5t-28.5 -127t-60.5 -121t-103.5 -102.5t-157.5 -70.5t-220 -26.5q-182 0 -290 57.5t-166 142.5t-75.5 184t-17.5 185zM506 2087 h153l170 -422h-153z" />
<glyph unicode="&#xfa;" d="M205 569v969h151v-991q0 -121 38 -198t96.5 -121t129 -61t134.5 -17q74 0 149.5 17t137 61t100.5 121t39 198v991h151v-969q0 -57 -7 -121.5t-28.5 -127t-60.5 -121t-103.5 -102.5t-157.5 -70.5t-220 -26.5q-182 0 -290 57.5t-166 142.5t-75.5 184t-17.5 185zM670 1663 l170 422h151l-170 -422h-151z" />
<glyph unicode="&#x2000;" horiz-adv-x="1043" />
<glyph unicode="&#x2001;" horiz-adv-x="2087" />
<glyph unicode="&#x2002;" horiz-adv-x="1043" />
<glyph unicode="&#x2003;" horiz-adv-x="2087" />
<glyph unicode="&#x2004;" horiz-adv-x="695" />
<glyph unicode="&#x2005;" horiz-adv-x="521" />
<glyph unicode="&#x2006;" horiz-adv-x="347" />
<glyph unicode="&#x2007;" horiz-adv-x="347" />
<glyph unicode="&#x2008;" horiz-adv-x="260" />
<glyph unicode="&#x2009;" horiz-adv-x="417" />
<glyph unicode="&#x200a;" horiz-adv-x="115" />
<glyph unicode="&#x2010;" horiz-adv-x="1134" d="M205 598v137h725v-137h-725z" />
<glyph unicode="&#x2011;" horiz-adv-x="1134" d="M205 598v137h725v-137h-725z" />
<glyph unicode="&#x2012;" horiz-adv-x="1134" d="M205 598v137h725v-137h-725z" />
<glyph unicode="&#x2013;" horiz-adv-x="1501" d="M205 598v137h1091v-137h-1091z" />
<glyph unicode="&#x2014;" horiz-adv-x="1802" d="M166 590v139h1460v-139h-1460z" />
<glyph unicode="&#x2018;" horiz-adv-x="548" d="M205 940v598h180v-598h-180z" />
<glyph unicode="&#x2019;" horiz-adv-x="548" d="M205 940v598h180v-598h-180z" />
<glyph unicode="&#x201c;" horiz-adv-x="894" d="M205 1020v516h180v-516h-180zM508 1020v516h182v-516h-182z" />
<glyph unicode="&#x201d;" horiz-adv-x="894" d="M205 1020v516h180v-516h-180zM508 1020v516h182v-516h-182z" />
<glyph unicode="&#x202f;" horiz-adv-x="417" />
<glyph unicode="&#x205f;" horiz-adv-x="521" />
<glyph unicode="&#x20ac;" horiz-adv-x="1675" d="M141 506v145h125q-4 29 -6 58.5t-2 58.5q0 31 2 60.5t6 58.5h-125v145h160q55 158 180 283q229 223 545 223q289 0 508 -190q-10 -10 -28.5 -29t-35 -37t-30.5 -32l-13 -13q-86 72 -185 109.5t-216 37.5q-252 0 -434 -180q-78 -80 -123 -172h459v-145h-506 q-4 -29 -7 -58.5t-3 -60.5q0 -29 3 -58.5t7 -58.5h506v-145h-457q43 -90 121 -172q182 -180 434 -180q109 0 205 33.5t178 103.5q33 -33 59 -55q23 -20 41.5 -38t20.5 -18q-221 -180 -504 -180q-315 0 -545 223q-123 129 -178 283h-162z" />
<glyph unicode="&#x25fc;" d="M0 0v1536h1536v-1536h-1536z" />
</font>
</defs>
</svg>
